<mxfile host="65bd71144e">
    <diagram id="FEprKQndIjQNAZxvQdXm" name="Page-1">
        <mxGraphModel dx="920" dy="615" grid="1" gridSize="10" guides="1" tooltips="1" connect="1" arrows="1" fold="1" page="1" pageScale="1" pageWidth="10000" pageHeight="10000" math="0" shadow="0">
            <root>
                <mxCell id="0"/>
                <mxCell id="1" parent="0"/>
                <mxCell id="2" style="edgeStyle=none;html=1;exitX=0.25;exitY=1;exitDx=0;exitDy=0;entryX=0.25;entryY=0;entryDx=0;entryDy=0;" edge="1" parent="1" source="4" target="9">
                    <mxGeometry relative="1" as="geometry"/>
                </mxCell>
                <mxCell id="3" value="current" style="edgeLabel;html=1;align=center;verticalAlign=middle;resizable=0;points=[];" vertex="1" connectable="0" parent="2">
                    <mxGeometry x="-0.0667" y="-2" relative="1" as="geometry">
                        <mxPoint as="offset"/>
                    </mxGeometry>
                </mxCell>
                <mxCell id="4" value="fiberRootNode(根FiberNode)" style="rounded=0;whiteSpace=wrap;html=1;" vertex="1" parent="1">
                    <mxGeometry x="1120" y="160" width="120" height="60" as="geometry"/>
                </mxCell>
                <mxCell id="5" style="edgeStyle=none;html=1;exitX=0.75;exitY=0;exitDx=0;exitDy=0;entryX=0.75;entryY=1;entryDx=0;entryDy=0;" edge="1" parent="1" source="9" target="4">
                    <mxGeometry relative="1" as="geometry"/>
                </mxCell>
                <mxCell id="6" value="stateNode" style="edgeLabel;html=1;align=center;verticalAlign=middle;resizable=0;points=[];" vertex="1" connectable="0" parent="5">
                    <mxGeometry x="-0.0167" y="-1" relative="1" as="geometry">
                        <mxPoint as="offset"/>
                    </mxGeometry>
                </mxCell>
                <mxCell id="7" style="edgeStyle=none;html=1;exitX=1;exitY=0.25;exitDx=0;exitDy=0;entryX=0;entryY=0.25;entryDx=0;entryDy=0;" edge="1" parent="1" source="9" target="18">
                    <mxGeometry relative="1" as="geometry"/>
                </mxCell>
                <mxCell id="8" value="alternate" style="edgeLabel;html=1;align=center;verticalAlign=middle;resizable=0;points=[];" vertex="1" connectable="0" parent="7">
                    <mxGeometry x="-0.0543" y="-4" relative="1" as="geometry">
                        <mxPoint as="offset"/>
                    </mxGeometry>
                </mxCell>
                <mxCell id="9" value="hostRootFiber(FiberNode)" style="rounded=0;whiteSpace=wrap;html=1;" vertex="1" parent="1">
                    <mxGeometry x="1087.5" y="340" width="180" height="60" as="geometry"/>
                </mxCell>
                <mxCell id="10" value="finishWork = null" style="text;html=1;align=center;verticalAlign=middle;resizable=0;points=[];autosize=1;strokeColor=none;fillColor=none;" vertex="1" parent="1">
                    <mxGeometry x="1255" y="175" width="110" height="30" as="geometry"/>
                </mxCell>
                <mxCell id="11" value="updateQueue.shared.pending = null" style="text;html=1;align=center;verticalAlign=middle;resizable=0;points=[];autosize=1;strokeColor=none;fillColor=none;" vertex="1" parent="1">
                    <mxGeometry x="1267.5" y="310" width="210" height="30" as="geometry"/>
                </mxCell>
                <mxCell id="12" value="" style="endArrow=classic;html=1;exitX=0;exitY=0.5;exitDx=0;exitDy=0;" edge="1" parent="1" source="4">
                    <mxGeometry width="50" height="50" relative="1" as="geometry">
                        <mxPoint x="1010" y="220" as="sourcePoint"/>
                        <mxPoint x="1040" y="170" as="targetPoint"/>
                    </mxGeometry>
                </mxCell>
                <mxCell id="13" value="container" style="edgeLabel;html=1;align=center;verticalAlign=middle;resizable=0;points=[];" vertex="1" connectable="0" parent="12">
                    <mxGeometry x="-0.1564" relative="1" as="geometry">
                        <mxPoint x="1" as="offset"/>
                    </mxGeometry>
                </mxCell>
                <mxCell id="14" style="edgeStyle=none;html=1;exitX=0;exitY=0.75;exitDx=0;exitDy=0;entryX=1;entryY=0.75;entryDx=0;entryDy=0;" edge="1" parent="1" source="18" target="9">
                    <mxGeometry relative="1" as="geometry"/>
                </mxCell>
                <mxCell id="15" value="alternate" style="edgeLabel;html=1;align=center;verticalAlign=middle;resizable=0;points=[];" vertex="1" connectable="0" parent="14">
                    <mxGeometry x="-0.0156" y="-1" relative="1" as="geometry">
                        <mxPoint as="offset"/>
                    </mxGeometry>
                </mxCell>
                <mxCell id="16" style="edgeStyle=none;html=1;exitX=0.25;exitY=1;exitDx=0;exitDy=0;entryX=0.25;entryY=0;entryDx=0;entryDy=0;" edge="1" parent="1" source="18" target="21">
                    <mxGeometry relative="1" as="geometry"/>
                </mxCell>
                <mxCell id="17" value="child" style="edgeLabel;html=1;align=center;verticalAlign=middle;resizable=0;points=[];" vertex="1" connectable="0" parent="16">
                    <mxGeometry x="0.1652" y="1" relative="1" as="geometry">
                        <mxPoint x="-1" y="-8" as="offset"/>
                    </mxGeometry>
                </mxCell>
                <mxCell id="18" value="hostRootFiber wip" style="rounded=0;whiteSpace=wrap;html=1;" vertex="1" parent="1">
                    <mxGeometry x="1490" y="340" width="180" height="60" as="geometry"/>
                </mxCell>
                <mxCell id="19" style="edgeStyle=none;html=1;exitX=0.75;exitY=0;exitDx=0;exitDy=0;entryX=0.75;entryY=1;entryDx=0;entryDy=0;" edge="1" parent="1" source="21" target="18">
                    <mxGeometry relative="1" as="geometry"/>
                </mxCell>
                <mxCell id="20" value="return" style="edgeLabel;html=1;align=center;verticalAlign=middle;resizable=0;points=[];" vertex="1" connectable="0" parent="19">
                    <mxGeometry x="0.0342" y="-2" relative="1" as="geometry">
                        <mxPoint as="offset"/>
                    </mxGeometry>
                </mxCell>
                <mxCell id="33" style="edgeStyle=none;html=1;exitX=1;exitY=0.5;exitDx=0;exitDy=0;entryX=0;entryY=0.5;entryDx=0;entryDy=0;" edge="1" parent="1" source="21" target="31">
                    <mxGeometry relative="1" as="geometry"/>
                </mxCell>
                <mxCell id="21" value="App FiberNode" style="rounded=0;whiteSpace=wrap;html=1;" vertex="1" parent="1">
                    <mxGeometry x="1490" y="478" width="180" height="60" as="geometry"/>
                </mxCell>
                <mxCell id="22" value="flags |= Placement" style="text;whiteSpace=wrap;" vertex="1" parent="1">
                    <mxGeometry x="1670" y="510" width="130" height="40" as="geometry"/>
                </mxCell>
                <mxCell id="23" value="div id=&#39;&#39;root" style="text;html=1;align=center;verticalAlign=middle;resizable=0;points=[];autosize=1;strokeColor=none;fillColor=none;" vertex="1" parent="1">
                    <mxGeometry x="960" y="130" width="80" height="30" as="geometry"/>
                </mxCell>
                <mxCell id="25" value="" style="endArrow=classic;html=1;exitX=0.397;exitY=0.898;exitDx=0;exitDy=0;exitPerimeter=0;" edge="1" parent="1" source="28">
                    <mxGeometry width="50" height="50" relative="1" as="geometry">
                        <mxPoint x="1760" y="400" as="sourcePoint"/>
                        <mxPoint x="1680" y="480" as="targetPoint"/>
                    </mxGeometry>
                </mxCell>
                <mxCell id="28" value="&lt;div style=&quot;color: rgb(171, 178, 191); background-color: rgb(40, 44, 52); font-family: Consolas, &amp;quot;Courier New&amp;quot;, monospace; font-size: 14px; line-height: 19px; white-space-collapse: preserve;&quot;&gt;&lt;span style=&quot;color: rgb(171, 178, 191);&quot;&gt;workInProgress(当前正在处理的FiberNode)&lt;/span&gt;&lt;/div&gt;" style="text;html=1;align=center;verticalAlign=middle;resizable=0;points=[];autosize=1;strokeColor=none;fillColor=none;" vertex="1" parent="1">
                    <mxGeometry x="1670" y="280" width="310" height="30" as="geometry"/>
                </mxCell>
                <mxCell id="29" value="" style="endArrow=classic;html=1;" edge="1" parent="1">
                    <mxGeometry width="50" height="50" relative="1" as="geometry">
                        <mxPoint x="1830" y="430" as="sourcePoint"/>
                        <mxPoint x="1680" y="490" as="targetPoint"/>
                    </mxGeometry>
                </mxCell>
                <mxCell id="30" value="&lt;div style=&quot;color: rgb(171, 178, 191); background-color: rgb(40, 44, 52); font-family: Consolas, &amp;quot;Courier New&amp;quot;, monospace; font-size: 14px; line-height: 19px; white-space-collapse: preserve;&quot;&gt;&lt;span style=&quot;color: rgb(171, 178, 191);&quot;&gt;currentlyRenderingFiber(当前正在处理的函数对象)&lt;/span&gt;&lt;/div&gt;" style="text;html=1;align=center;verticalAlign=middle;resizable=0;points=[];autosize=1;strokeColor=none;fillColor=none;" vertex="1" parent="1">
                    <mxGeometry x="1730" y="400" width="370" height="30" as="geometry"/>
                </mxCell>
                <mxCell id="31" value="&lt;div style=&quot;background-color: rgb(40, 44, 52); font-family: Consolas, &amp;quot;Courier New&amp;quot;, monospace; font-size: 14px; line-height: 19px; white-space: pre; color: rgb(171, 178, 191);&quot;&gt;&lt;div style=&quot;color: light-dark(rgb(171, 178, 191), rgb(79, 85, 96)); text-align: left;&quot;&gt;&lt;span style=&quot;color: rgb(198, 120, 221);&quot;&gt;const&lt;/span&gt;&lt;span style=&quot;color: rgb(171, 178, 191);&quot;&gt; &lt;/span&gt;&lt;span style=&quot;color: rgb(209, 154, 102);&quot;&gt;hook&lt;/span&gt;&lt;span style=&quot;color: rgb(86, 182, 194);&quot;&gt;:&lt;/span&gt;&lt;span style=&quot;color: rgb(171, 178, 191);&quot;&gt; &lt;/span&gt;&lt;span style=&quot;color: rgb(229, 192, 123);&quot;&gt;Hook&lt;/span&gt;&lt;span style=&quot;color: rgb(171, 178, 191);&quot;&gt; &lt;/span&gt;&lt;span style=&quot;color: rgb(86, 182, 194);&quot;&gt;=&lt;/span&gt;&lt;span style=&quot;color: rgb(171, 178, 191);&quot;&gt; {&lt;/span&gt;&lt;/div&gt;&lt;div style=&quot;color: light-dark(rgb(171, 178, 191), rgb(79, 85, 96)); text-align: left;&quot;&gt;&lt;span style=&quot;color: rgb(171, 178, 191);&quot;&gt;&amp;nbsp;  &lt;/span&gt;&lt;span style=&quot;color: rgb(224, 108, 117);&quot;&gt;memoizedState&lt;/span&gt;&lt;span style=&quot;color: rgb(86, 182, 194);&quot;&gt;:&lt;/span&gt;&lt;span style=&quot;color: rgb(171, 178, 191);&quot;&gt; &lt;/span&gt;&lt;span style=&quot;color: rgb(209, 154, 102);&quot;&gt;null&lt;/span&gt;&lt;span style=&quot;color: rgb(171, 178, 191);&quot;&gt;,&lt;/span&gt;&lt;/div&gt;&lt;div style=&quot;text-align: left;&quot;&gt;&lt;span style=&quot;color: rgb(224, 108, 117);&quot;&gt;&lt;font color=&quot;#abb2bf&quot;&gt;   &lt;/font&gt;&lt;/span&gt;&lt;span style=&quot;color: rgb(224, 108, 117);&quot;&gt;updateQueue&lt;/span&gt;&lt;span style=&quot;color: rgb(86, 182, 194);&quot;&gt;:&lt;/span&gt;&lt;span style=&quot;color: rgb(171, 178, 191);&quot;&gt; &lt;/span&gt;&lt;span style=&quot;color: rgb(209, 154, 102);&quot;&gt;null&lt;/span&gt;&lt;span style=&quot;color: rgb(171, 178, 191);&quot;&gt;,&lt;/span&gt;&lt;/div&gt;&lt;div style=&quot;color: light-dark(rgb(171, 178, 191), rgb(79, 85, 96)); text-align: left;&quot;&gt;&lt;span style=&quot;color: rgb(224, 108, 117);&quot;&gt;   next&lt;/span&gt;&lt;span style=&quot;color: rgb(86, 182, 194);&quot;&gt;:&lt;/span&gt;&lt;span style=&quot;color: rgb(171, 178, 191);&quot;&gt; &lt;/span&gt;&lt;span style=&quot;color: rgb(209, 154, 102);&quot;&gt;null&lt;/span&gt;&lt;span style=&quot;color: rgb(171, 178, 191);&quot;&gt;,&lt;/span&gt;&lt;/div&gt;&lt;div style=&quot;color: light-dark(rgb(171, 178, 191), rgb(79, 85, 96)); text-align: left;&quot;&gt;&lt;span style=&quot;color: rgb(171, 178, 191);&quot;&gt;&amp;nbsp; &amp;nbsp;&lt;/span&gt;&lt;span style=&quot;color: rgb(224, 108, 117);&quot;&gt;baseQueue&lt;/span&gt;&lt;span style=&quot;color: rgb(86, 182, 194);&quot;&gt;:&lt;/span&gt;&lt;span style=&quot;color: rgb(171, 178, 191);&quot;&gt; &lt;/span&gt;&lt;span style=&quot;color: rgb(209, 154, 102);&quot;&gt;null&lt;/span&gt;&lt;span style=&quot;color: rgb(171, 178, 191);&quot;&gt;,&lt;/span&gt;&lt;/div&gt;&lt;div style=&quot;color: light-dark(rgb(171, 178, 191), rgb(79, 85, 96)); text-align: left;&quot;&gt;&lt;span style=&quot;color: rgb(171, 178, 191);&quot;&gt;&amp;nbsp; &amp;nbsp;&lt;/span&gt;&lt;span style=&quot;color: rgb(224, 108, 117);&quot;&gt;baseState&lt;/span&gt;&lt;span style=&quot;color: rgb(86, 182, 194);&quot;&gt;:&lt;/span&gt;&lt;span style=&quot;color: rgb(171, 178, 191);&quot;&gt; &lt;/span&gt;&lt;span style=&quot;color: rgb(209, 154, 102);&quot;&gt;null&lt;/span&gt;&lt;span style=&quot;color: rgb(171, 178, 191);&quot;&gt;,&lt;/span&gt;&lt;/div&gt;&lt;div style=&quot;color: light-dark(rgb(171, 178, 191), rgb(79, 85, 96)); text-align: left;&quot;&gt;&lt;span style=&quot;color: rgb(171, 178, 191);&quot;&gt;&amp;nbsp;};&lt;/span&gt;&lt;/div&gt;&lt;div style=&quot;color: light-dark(rgb(171, 178, 191), rgb(79, 85, 96));&quot;&gt;&lt;span style=&quot;color: rgb(171, 178, 191);&quot;&gt;&lt;/span&gt;&lt;/div&gt;&lt;/div&gt;" style="rounded=0;whiteSpace=wrap;html=1;" vertex="1" parent="1">
                    <mxGeometry x="2060" y="432.5" width="290" height="151" as="geometry"/>
                </mxCell>
                <mxCell id="34" value="memorizedState" style="text;html=1;align=center;verticalAlign=middle;resizable=0;points=[];autosize=1;strokeColor=none;fillColor=none;" vertex="1" parent="1">
                    <mxGeometry x="1790" y="480" width="110" height="30" as="geometry"/>
                </mxCell>
                <mxCell id="35" value="" style="endArrow=classic;html=1;entryX=0.5;entryY=0;entryDx=0;entryDy=0;" edge="1" parent="1" source="36" target="31">
                    <mxGeometry width="50" height="50" relative="1" as="geometry">
                        <mxPoint x="2130" y="380" as="sourcePoint"/>
                        <mxPoint x="2180" y="330" as="targetPoint"/>
                    </mxGeometry>
                </mxCell>
                <mxCell id="36" value="&lt;div style=&quot;background-color: rgb(40, 44, 52); font-family: Consolas, &amp;quot;Courier New&amp;quot;, monospace; font-size: 14px; line-height: 19px; white-space-collapse: preserve; color: rgb(171, 178, 191);&quot;&gt;&lt;span style=&quot;color: rgb(171, 178, 191);&quot;&gt;workInProgressHook(&lt;/span&gt;&lt;span style=&quot;color: rgb(171, 178, 191);&quot;&gt;当前在执行的hook)&lt;/span&gt;&lt;/div&gt;" style="text;html=1;align=center;verticalAlign=middle;resizable=0;points=[];autosize=1;strokeColor=none;fillColor=none;" vertex="1" parent="1">
                    <mxGeometry x="2145" y="355" width="290" height="30" as="geometry"/>
                </mxCell>
            </root>
        </mxGraphModel>
    </diagram>
</mxfile>